<svg width="18" height="18" viewBox="0 0 18 18" fill="none" xmlns="http://www.w3.org/2000/svg">
<circle cx="9" cy="9" r="9" fill="#FF6C9E"/>
<path d="M14.8346 6.22074C14.8351 6.14397 14.8204 6.06787 14.7913 5.99679C14.7623 5.92572 14.7195 5.86108 14.6655 5.80657L12.1921 3.33324C12.1376 3.27917 12.073 3.2364 12.0019 3.20737C11.9309 3.17834 11.8547 3.16363 11.778 3.16407C11.7012 3.16363 11.6251 3.17834 11.554 3.20737C11.483 3.2364 11.4183 3.27917 11.3638 3.33324L9.71298 4.98407L3.33715 11.3599C3.28308 11.4144 3.24031 11.4791 3.21128 11.5501C3.18225 11.6212 3.16753 11.6973 3.16798 11.7741V14.2474C3.16798 14.4021 3.22944 14.5505 3.33883 14.6599C3.44823 14.7693 3.5966 14.8307 3.75131 14.8307H6.22464C6.30627 14.8352 6.38792 14.8224 6.46429 14.7933C6.54066 14.7641 6.61006 14.7193 6.66798 14.6616L13.0088 8.28574L14.6655 6.66407C14.7187 6.60754 14.7621 6.54247 14.7938 6.47157C14.7994 6.42507 14.7994 6.37807 14.7938 6.33157C14.7965 6.30442 14.7965 6.27706 14.7938 6.24991L14.8346 6.22074ZM5.98548 13.6641H4.33465V12.0132L10.1271 6.22074L11.778 7.87157L5.98548 13.6641ZM12.6005 7.04907L10.9496 5.39824L11.778 4.57574L13.423 6.22074L12.6005 7.04907Z" fill="white"/>
</svg>
