<svg width="16" height="16" viewBox="0 0 16 16" fill="none" xmlns="http://www.w3.org/2000/svg">
<path fill-rule="evenodd" clip-rule="evenodd" d="M8.39603 1.36303C7.5287 1.3017 6.8607 2.02037 6.8607 2.8337V3.5357C6.8607 5.31304 5.65203 6.05903 5.01136 6.3357C4.89998 6.38154 4.78254 6.41096 4.6627 6.42304C4.64291 6.12779 4.51168 5.85109 4.29557 5.64896C4.07945 5.44684 3.79461 5.33438 3.4987 5.33437H2.4987C2.18928 5.33437 1.89253 5.45728 1.67374 5.67608C1.45495 5.89487 1.33203 6.19162 1.33203 6.50103V13.501C1.33203 14.1457 1.8547 14.6677 2.4987 14.6677H3.4987C3.78853 14.6677 4.068 14.5599 4.28268 14.3652C4.49736 14.1705 4.63188 13.9028 4.66003 13.6144C5.2187 13.6544 5.77136 13.8117 6.45336 14.005L6.8547 14.1184C7.8307 14.389 8.9967 14.6677 10.5507 14.6677C12.0094 14.6677 13.0127 14.5317 13.606 13.753C13.8874 13.3837 14.0394 12.9164 14.15 12.3864C14.2487 11.9144 14.3247 11.3397 14.414 10.6664L14.448 10.4064C14.6607 8.8157 14.6667 7.6197 14.2994 6.81037C14.104 6.38103 13.804 6.06037 13.396 5.85637C13.0027 5.65903 12.54 5.58703 12.0387 5.58703H10.672L10.7094 5.30103C10.726 5.18103 10.7427 5.05303 10.76 4.9197C10.8 4.5977 10.838 4.24904 10.838 3.96104C10.838 3.13103 10.69 2.45903 10.2247 2.00037C9.7687 1.55037 9.1127 1.4137 8.39603 1.36303ZM4.66536 12.613C5.37136 12.6557 6.05136 12.8497 6.74403 13.0477L7.1227 13.1544C8.06003 13.4144 9.1267 13.6677 10.5507 13.6677C12.0687 13.6677 12.5534 13.485 12.8107 13.147C12.9547 12.9584 13.0694 12.6684 13.1707 12.1817C13.2614 11.7484 13.332 11.215 13.4234 10.5304L13.4567 10.2744C13.67 8.67437 13.6254 7.74437 13.3887 7.22437C13.282 6.9897 13.1387 6.8457 12.9487 6.75037C12.7454 6.64837 12.4554 6.58703 12.0387 6.58703H10.4587C10.0047 6.58703 9.5967 6.20703 9.65137 5.7017C9.6687 5.5397 9.6947 5.3437 9.72136 5.1457L9.76803 4.79437C9.80803 4.47303 9.83803 4.18037 9.83803 3.96104C9.83803 3.21104 9.69603 2.88303 9.5227 2.71237C9.33937 2.53237 9.0067 2.40903 8.32603 2.36037C8.09203 2.34437 7.8607 2.54304 7.8607 2.8337V3.5357C7.8607 5.90237 6.20203 6.91104 5.40736 7.2537C5.15936 7.36037 4.9047 7.40837 4.66536 7.42704V12.6137V12.613ZM2.4987 13.6677C2.4545 13.6677 2.4121 13.6501 2.38085 13.6189C2.34959 13.5876 2.33203 13.5452 2.33203 13.501V6.50103C2.33203 6.45683 2.34959 6.41444 2.38085 6.38318C2.4121 6.35193 2.4545 6.33437 2.4987 6.33437H3.4987C3.5429 6.33437 3.58529 6.35193 3.61655 6.38318C3.64781 6.41444 3.66536 6.45683 3.66536 6.50103V13.501C3.66536 13.5452 3.64781 13.5876 3.61655 13.6189C3.58529 13.6501 3.5429 13.6677 3.4987 13.6677H2.4987Z" fill="#545454"/>
</svg>
