<svg width="32" height="32" viewBox="0 0 32 32" fill="none" xmlns="http://www.w3.org/2000/svg">
<g clip-path="url(#clip0_1317_6719)">
<path d="M25.3333 0H6.66667C4.89921 0.00211714 3.20474 0.705176 1.95496 1.95496C0.705176 3.20474 0.00211714 4.89921 0 6.66667L0 25.3333C0.00211714 27.1008 0.705176 28.7953 1.95496 30.045C3.20474 31.2948 4.89921 31.9979 6.66667 32H25.3333C27.1008 31.9979 28.7953 31.2948 30.045 30.045C31.2948 28.7953 31.9979 27.1008 32 25.3333V6.66667C31.9979 4.89921 31.2948 3.20474 30.045 1.95496C28.7953 0.705176 27.1008 0.00211714 25.3333 0V0ZM6.66667 2.66667H25.3333C26.3942 2.66667 27.4116 3.08809 28.1618 3.83824C28.9119 4.58839 29.3333 5.6058 29.3333 6.66667V25.3333C29.331 25.9273 29.1943 26.5131 28.9333 27.0467L16.716 14.8293C16.0969 14.2101 15.3619 13.7189 14.553 13.3837C13.744 13.0486 12.877 12.8761 12.0013 12.8761C11.1257 12.8761 10.2587 13.0486 9.44971 13.3837C8.64075 13.7189 7.90575 14.2101 7.28667 14.8293L2.66667 19.448V6.66667C2.66667 5.6058 3.08809 4.58839 3.83824 3.83824C4.58839 3.08809 5.6058 2.66667 6.66667 2.66667ZM6.66667 29.3333C5.6058 29.3333 4.58839 28.9119 3.83824 28.1618C3.08809 27.4116 2.66667 26.3942 2.66667 25.3333V23.2187L9.17067 16.7147C9.54213 16.343 9.9832 16.0481 10.4687 15.8469C10.9541 15.6457 11.4745 15.5422 12 15.5422C12.5255 15.5422 13.0459 15.6457 13.5313 15.8469C14.0168 16.0481 14.4579 16.343 14.8293 16.7147L27.0467 28.9333C26.5131 29.1943 25.9273 29.331 25.3333 29.3333H6.66667Z" fill="#374957"/>
<path d="M21.3337 13.9974C22.2566 13.9974 23.1589 13.7237 23.9263 13.2109C24.6938 12.6981 25.2919 11.9693 25.6451 11.1166C25.9983 10.2639 26.0907 9.32555 25.9107 8.42031C25.7306 7.51507 25.2861 6.68355 24.6335 6.0309C23.9808 5.37826 23.1493 4.9338 22.2441 4.75373C21.3388 4.57367 20.4005 4.66608 19.5478 5.01929C18.6951 5.3725 17.9662 5.97064 17.4535 6.73807C16.9407 7.5055 16.667 8.40775 16.667 9.33073C16.667 10.5684 17.1587 11.7554 18.0338 12.6306C18.909 13.5057 20.096 13.9974 21.3337 13.9974ZM21.3337 7.33073C21.7292 7.33073 22.1159 7.44803 22.4448 7.66779C22.7737 7.88756 23.03 8.19991 23.1814 8.56536C23.3328 8.93082 23.3724 9.33295 23.2952 9.72091C23.2181 10.1089 23.0276 10.4652 22.7479 10.7449C22.4682 11.0247 22.1118 11.2151 21.7238 11.2923C21.3359 11.3695 20.9337 11.3299 20.5683 11.1785C20.2028 11.0271 19.8905 10.7708 19.6707 10.4419C19.451 10.113 19.3337 9.72629 19.3337 9.33073C19.3337 8.8003 19.5444 8.29159 19.9194 7.91652C20.2945 7.54145 20.8032 7.33073 21.3337 7.33073Z" fill="#374957"/>
</g>
<defs>
<clipPath id="clip0_1317_6719">
<rect width="32" height="32" fill="white"/>
</clipPath>
</defs>
</svg>
