<svg width="24" height="24" viewBox="0 0 24 24" fill="none" xmlns="http://www.w3.org/2000/svg">
<g clip-path="url(#clip0_50_3649)">
<path d="M12 24C9.62663 24 7.30655 23.2962 5.33316 21.9776C3.35977 20.6591 1.8217 18.7849 0.913451 16.5922C0.00519943 14.3995 -0.232441 11.9867 0.230582 9.65892C0.693605 7.33115 1.83649 5.19295 3.51472 3.51472C5.19295 1.83649 7.33115 0.693605 9.65892 0.230582C11.9867 -0.232441 14.3995 0.00519943 16.5922 0.913451C18.7849 1.8217 20.6591 3.35977 21.9776 5.33316C23.2962 7.30655 24 9.62663 24 12C23.9966 15.1815 22.7312 18.2318 20.4815 20.4815C18.2318 22.7312 15.1815 23.9966 12 24ZM12 2.00001C10.0222 2.00001 8.08879 2.5865 6.4443 3.68531C4.79981 4.78412 3.51809 6.34591 2.76121 8.17317C2.00433 10.0004 1.8063 12.0111 2.19215 13.9509C2.578 15.8907 3.53041 17.6725 4.92894 19.0711C6.32746 20.4696 8.10929 21.422 10.0491 21.8079C11.9889 22.1937 13.9996 21.9957 15.8268 21.2388C17.6541 20.4819 19.2159 19.2002 20.3147 17.5557C21.4135 15.9112 22 13.9778 22 12C21.9971 9.34873 20.9426 6.80689 19.0679 4.93215C17.1931 3.05742 14.6513 2.00292 12 2.00001Z" fill="#374957"/>
<path d="M12.9995 14.9986H10.9995V14.2556C10.9847 13.55 11.1591 12.8533 11.5044 12.2379C11.8498 11.6224 12.3536 11.1106 12.9635 10.7556C13.333 10.5521 13.6287 10.237 13.8083 9.85532C13.9879 9.47366 14.0422 9.04499 13.9635 8.63058C13.8856 8.23579 13.6917 7.87318 13.4067 7.58907C13.1218 7.30497 12.7585 7.11227 12.3635 7.03558C12.0752 6.98223 11.7787 6.9929 11.495 7.06685C11.2113 7.14079 10.9474 7.27621 10.7218 7.4635C10.4963 7.65079 10.3147 7.88538 10.1898 8.15066C10.065 8.41593 10 8.70541 9.99951 8.99858H7.99951C7.99976 8.29309 8.1866 7.60021 8.54107 6.99024C8.89553 6.38026 9.40502 5.87488 10.0179 5.52537C10.6307 5.17586 11.3251 4.99465 12.0305 5.00012C12.736 5.00559 13.4275 5.19755 14.0348 5.55653C14.6421 5.9155 15.1437 6.42872 15.4887 7.04412C15.8337 7.65952 16.0097 8.35522 15.999 9.06063C15.9883 9.76604 15.7913 10.4561 15.4278 11.0607C15.0644 11.6654 14.5474 12.1632 13.9295 12.5036C13.6342 12.6882 13.3928 12.9473 13.2296 13.2549C13.0663 13.5624 12.987 13.9076 12.9995 14.2556V14.9986Z" fill="#374957"/>
<path d="M12.9995 17H10.9995V19H12.9995V17Z" fill="#374957"/>
</g>
<defs>
<clipPath id="clip0_50_3649">
<rect width="24" height="24" fill="white"/>
</clipPath>
</defs>
</svg>
