<svg width="25" height="25" viewBox="0 0 25 25" fill="none" xmlns="http://www.w3.org/2000/svg">
<g clip-path="url(#clip0_2133_17299)">
<path d="M20.1388 15.2784C19.3513 15.279 18.5756 15.4713 17.879 15.8386C17.1823 16.2059 16.5854 16.7372 16.1399 17.3867L9.35968 14.3253C9.84125 13.1624 9.84313 11.8562 9.36489 10.6919L16.1357 7.61484C16.796 8.5698 17.7767 9.25647 18.8999 9.55031C20.0231 9.84414 21.2144 9.72568 22.2577 9.2164C23.3011 8.70713 24.1273 7.84078 24.5866 6.77449C25.0459 5.70821 25.1078 4.51262 24.7611 3.40461C24.4144 2.29659 23.682 1.34952 22.6969 0.735211C21.7117 0.120897 20.539 -0.119979 19.3915 0.0562745C18.244 0.232528 17.1976 0.814238 16.4422 1.69589C15.6868 2.57753 15.2725 3.70072 15.2743 4.86172C15.2787 5.13651 15.3066 5.41042 15.3576 5.68047L8.15968 8.9513C7.46837 8.30361 6.60292 7.87196 5.66965 7.70938C4.73639 7.54681 3.77596 7.66038 2.90636 8.03615C2.03675 8.41192 1.29585 9.03353 0.774677 9.82459C0.253501 10.6157 -0.0252506 11.5417 -0.027332 12.4891C-0.0294134 13.4364 0.245266 14.3637 0.762961 15.157C1.28066 15.9504 2.01882 16.5752 2.88676 16.9548C3.7547 17.3344 4.71463 17.4522 5.6486 17.2937C6.58257 17.1352 7.4499 16.7074 8.14406 16.0628L15.3607 19.3211C15.3106 19.5909 15.2831 19.8644 15.2784 20.1388C15.2782 21.1004 15.5632 22.0405 16.0973 22.8401C16.6314 23.6397 17.3906 24.263 18.279 24.631C19.1674 24.9991 20.1449 25.0955 21.0881 24.9079C22.0312 24.7204 22.8975 24.2574 23.5775 23.5774C24.2574 22.8975 24.7204 22.0311 24.908 21.088C25.0955 20.1449 24.9992 19.1673 24.6311 18.279C24.263 17.3906 23.6397 16.6314 22.8401 16.0973C22.0405 15.5631 21.1004 15.2782 20.1388 15.2784ZM20.1388 2.08359C20.6884 2.08339 21.2256 2.24614 21.6826 2.55128C22.1396 2.85642 22.4958 3.29023 22.7062 3.79785C22.9167 4.30547 22.9718 4.86409 22.8648 5.40306C22.7577 5.94204 22.4932 6.43715 22.1047 6.82578C21.7162 7.21441 21.2212 7.47911 20.6823 7.58638C20.1433 7.69366 19.5847 7.63871 19.077 7.42847C18.5693 7.21823 18.1353 6.86215 17.83 6.40527C17.5247 5.94839 17.3618 5.41122 17.3618 4.86172C17.3623 4.12526 17.655 3.41911 18.1757 2.89826C18.6964 2.37741 19.4024 2.08442 20.1388 2.08359ZM4.86176 15.2784C4.31226 15.2786 3.77503 15.1158 3.31804 14.8107C2.86104 14.5056 2.5048 14.0717 2.29437 13.5641C2.08394 13.0565 2.02877 12.4979 2.13585 11.9589C2.24293 11.4199 2.50744 10.9248 2.89592 10.5362C3.28441 10.1476 3.77942 9.88287 4.31835 9.77559C4.85729 9.66831 5.41593 9.72327 5.92362 9.93351C6.43132 10.1437 6.86527 10.4998 7.17058 10.9567C7.47589 11.4136 7.63885 11.9508 7.63885 12.5003C7.63802 13.2366 7.3452 13.9426 6.82461 14.4634C6.30401 14.9842 5.59813 15.2773 4.86176 15.2784ZM20.1388 22.9169C19.5894 22.9169 19.0523 22.754 18.5954 22.4487C18.1385 22.1435 17.7825 21.7096 17.5722 21.2019C17.3619 20.6943 17.3069 20.1357 17.4141 19.5968C17.5213 19.0579 17.7859 18.5629 18.1744 18.1744C18.5629 17.7858 19.058 17.5213 19.5969 17.4141C20.1358 17.3069 20.6944 17.3619 21.202 17.5721C21.7096 17.7824 22.1435 18.1385 22.4488 18.5954C22.754 19.0522 22.917 19.5893 22.917 20.1388C22.9164 20.8754 22.6236 21.5817 22.1027 22.1026C21.5818 22.6235 20.8755 22.9164 20.1388 22.9169Z" fill="#606060"/>
</g>
<defs>
<clipPath id="clip0_2133_17299">
<rect width="25" height="25" fill="white"/>
</clipPath>
</defs>
</svg>
