<svg width="27" height="27" viewBox="0 0 27 27" fill="none" xmlns="http://www.w3.org/2000/svg">
<g clip-path="url(#clip0_2133_17296)">
<path d="M13.5 13.5011C14.39 13.5011 15.26 13.2371 16.0001 12.7427C16.7401 12.2482 17.3169 11.5454 17.6575 10.7231C17.9981 9.90087 18.0872 8.99607 17.9135 8.12316C17.7399 7.25024 17.3113 6.44842 16.682 5.81908C16.0526 5.18975 15.2508 4.76116 14.3779 4.58753C13.505 4.4139 12.6002 4.50301 11.7779 4.84361C10.9557 5.1842 10.2529 5.76098 9.75839 6.501C9.26392 7.24102 9 8.11105 9 9.00106C9 10.1945 9.47411 11.3391 10.318 12.183C11.1619 13.027 12.3065 13.5011 13.5 13.5011ZM13.5 6.75106C13.945 6.75106 14.38 6.88302 14.75 7.13026C15.12 7.37749 15.4084 7.72889 15.5787 8.14003C15.749 8.55116 15.7936 9.00356 15.7068 9.44002C15.62 9.87647 15.4057 10.2774 15.091 10.5921C14.7763 10.9067 14.3754 11.121 13.939 11.2078C13.5025 11.2946 13.0501 11.2501 12.639 11.0798C12.2278 10.9095 11.8764 10.6211 11.6292 10.2511C11.382 9.88109 11.25 9.44607 11.25 9.00106C11.25 8.40433 11.4871 7.83203 11.909 7.41007C12.331 6.98812 12.9033 6.75106 13.5 6.75106ZM18 24.7848L27 26.9763V15.1694C26.9998 14.4448 26.7663 13.7395 26.3341 13.1578C25.902 12.5761 25.2941 12.149 24.6004 11.9396L22.2379 11.1521C22.4106 10.4504 22.4986 9.73047 22.5 9.00781C22.5 6.62086 21.5518 4.33168 19.864 2.64385C18.1761 0.956024 15.887 0.0078125 13.5 0.0078125C11.1131 0.0078125 8.82387 0.956024 7.13604 2.64385C5.44821 4.33168 4.5 6.62086 4.5 9.00781C4.50333 9.46449 4.54093 9.92027 4.6125 10.3713C4.1016 10.1676 3.54858 10.0923 3.00181 10.1518C2.45503 10.2113 1.93117 10.4039 1.47605 10.7127C1.02093 11.0215 0.64842 11.4371 0.391102 11.9232C0.133784 12.4093 -0.000498612 12.9511 1.39122e-06 13.5011V24.4721L8.98088 27.0382L18 24.7848ZM8.72663 4.23556C9.99478 2.98541 11.7056 2.28703 13.4863 2.29255C15.267 2.29808 16.9735 3.00706 18.2338 4.26505C19.4942 5.52305 20.2064 7.22813 20.2153 9.00886C20.2242 10.7896 19.529 12.5017 18.2813 13.7722L13.5 18.4511L8.72663 13.7812C7.46085 12.5153 6.74976 10.7985 6.74976 9.00838C6.74976 7.21824 7.46085 5.50142 8.72663 4.23556V4.23556ZM2.25 13.5011C2.24858 13.3155 2.29378 13.1326 2.38144 12.969C2.46911 12.8055 2.59644 12.6666 2.75175 12.5651C2.91422 12.4584 3.10138 12.3954 3.29524 12.382C3.48911 12.3686 3.68316 12.4053 3.85875 12.4886L5.472 13.0713C5.90362 13.926 6.46828 14.7068 7.14488 15.3843L13.5 21.6011L19.8641 15.3764C20.4899 14.7516 21.0206 14.0382 21.4391 13.2592L23.9333 14.0928C24.1682 14.16 24.3748 14.3018 24.522 14.4969C24.6691 14.692 24.7488 14.9296 24.7489 15.1739V24.1166L18 22.4673L9.0225 24.7173L2.25 22.7778V13.5011Z" fill="#606060"/>
</g>
<defs>
<clipPath id="clip0_2133_17296">
<rect width="27" height="27" fill="white"/>
</clipPath>
</defs>
</svg>
