<svg width="85" height="30" viewBox="0 0 85 30" fill="none" xmlns="http://www.w3.org/2000/svg">
<path d="M10.75 9.5H7.5625V17.7812C7.55208 18.4167 7.68229 18.8594 7.95312 19.1094C8.23438 19.349 8.63542 19.4792 9.15625 19.5C9.63542 19.5 10.25 19.4688 11 19.4062V23.0625C10.3125 23.1667 9.47396 23.2188 8.48438 23.2188C6.75521 23.2188 5.39583 22.8229 4.40625 22.0312C3.41667 21.2292 2.92708 20.0312 2.9375 18.4375V9.5H0.59375V6.03125H2.9375V1.96875H7.5625V6.03125H10.75V9.5ZM21.0938 23.3438C19.4062 23.3438 17.9323 22.9792 16.6719 22.25C15.4219 21.5104 14.4583 20.4792 13.7812 19.1562C13.1146 17.8333 12.7812 16.3021 12.7812 14.5625C12.7812 12.8229 13.1146 11.2969 13.7812 9.98438C14.4583 8.66146 15.4219 7.63542 16.6719 6.90625C17.9323 6.17708 19.4062 5.8125 21.0938 5.8125C22.7812 5.8125 24.25 6.17708 25.5 6.90625C26.7604 7.63542 27.7292 8.66146 28.4062 9.98438C29.0938 11.2969 29.4375 12.8229 29.4375 14.5625C29.4375 16.3021 29.0938 17.8333 28.4062 19.1562C27.7292 20.4792 26.7604 21.5104 25.5 22.25C24.25 22.9792 22.7812 23.3438 21.0938 23.3438ZM17.4688 14.5625C17.4688 15.5729 17.6042 16.4688 17.875 17.25C18.1562 18.0208 18.5729 18.6302 19.125 19.0781C19.6771 19.526 20.3438 19.75 21.125 19.75C21.8854 19.75 22.5365 19.5312 23.0781 19.0938C23.6198 18.6458 24.026 18.0365 24.2969 17.2656C24.5781 16.4948 24.7188 15.6146 24.7188 14.625C24.7188 13.6042 24.5833 12.6979 24.3125 11.9062C24.0417 11.1042 23.6354 10.4792 23.0938 10.0312C22.5521 9.57292 21.8958 9.34375 21.125 9.34375C20.3438 9.34375 19.6771 9.56771 19.125 10.0156C18.5729 10.4635 18.1562 11.0833 17.875 11.875C17.6042 12.6562 17.4688 13.5521 17.4688 14.5625ZM38.5938 23.2812C37.2812 23.2812 36.1042 22.9427 35.0625 22.2656C34.0208 21.5781 33.1979 20.5781 32.5938 19.2656C31.9896 17.9427 31.6875 16.3646 31.6875 14.5312C31.6875 12.6562 31.9948 11.0677 32.6094 9.76562C33.224 8.45312 34.0521 7.46875 35.0938 6.8125C36.1458 6.14583 37.3125 5.8125 38.5938 5.8125C39.875 5.8125 40.901 6.10938 41.6719 6.70312C42.4531 7.29688 43.0312 8.02083 43.4062 8.875H43.5625V0.375H48.1875V23H43.625V20.2812H43.4062C43.0208 21.125 42.4375 21.8385 41.6562 22.4219C40.875 22.9948 39.8542 23.2812 38.5938 23.2812ZM36.4375 14.4531C36.4375 16.0052 36.7448 17.25 37.3594 18.1875C37.9844 19.1146 38.875 19.5833 40.0312 19.5938C40.7917 19.5938 41.4427 19.3854 41.9844 18.9688C42.526 18.5417 42.9375 17.9479 43.2188 17.1875C43.5104 16.4167 43.6562 15.5208 43.6562 14.5C43.6562 12.9583 43.3385 11.7396 42.7031 10.8438C42.0677 9.94792 41.1771 9.5 40.0312 9.5C38.8854 9.5 38 9.95312 37.375 10.8594C36.75 11.7552 36.4375 12.9531 36.4375 14.4531ZM51.0938 18.25C51.1042 16.5 51.6927 15.224 52.8594 14.4219C54.026 13.6094 55.5417 13.1458 57.4062 13.0312C58.5521 12.9583 59.9583 12.8854 61.625 12.8125V11.4375C61.6146 10.7292 61.375 10.1823 60.9062 9.79688C60.4375 9.40104 59.7708 9.19792 58.9062 9.1875C58.125 9.19792 57.4896 9.36979 57 9.70312C56.5208 10.026 56.2188 10.4792 56.0938 11.0625H51.6875C51.7812 10.0625 52.125 9.16667 52.7188 8.375C53.3229 7.58333 54.1615 6.95833 55.2344 6.5C56.3073 6.04167 57.5729 5.8125 59.0312 5.8125C60.3333 5.8125 61.526 6.01562 62.6094 6.42188C63.7031 6.82812 64.5781 7.46354 65.2344 8.32812C65.8906 9.18229 66.2188 10.2604 66.2188 11.5625V23H61.8438V20.6562H61.7188C61.2812 21.4792 60.6458 22.1302 59.8125 22.6094C58.9792 23.0885 57.9583 23.3229 56.75 23.3125C55.6458 23.3229 54.6667 23.1354 53.8125 22.75C52.9688 22.3646 52.3021 21.7917 51.8125 21.0312C51.3333 20.2708 51.0938 19.3438 51.0938 18.25ZM55.5312 18.125C55.5312 18.7604 55.7604 19.25 56.2188 19.5938C56.6875 19.9375 57.3021 20.1146 58.0625 20.125C58.75 20.125 59.3646 19.9844 59.9062 19.7031C60.4583 19.4219 60.8802 19.0417 61.1719 18.5625C61.474 18.0729 61.625 17.5312 61.625 16.9375V15.7031C60.2292 15.7656 59.0729 15.8333 58.1562 15.9062C57.3333 15.9792 56.6875 16.2083 56.2188 16.5938C55.7604 16.9688 55.5312 17.4792 55.5312 18.125ZM71.8438 29.375C70.6875 29.3542 69.9062 29.3229 69.5 29.2812V25.6875C70.0312 25.7292 70.6562 25.75 71.375 25.75C71.7396 25.75 72.0469 25.7188 72.2969 25.6562C72.5469 25.5938 72.7812 25.4479 73 25.2188C73.2188 25 73.4167 24.6562 73.5938 24.1875L73.875 23.4688L67.7812 6.03125H72.625L76.1875 18.5312H76.375L79.9688 6.03125H84.875L78.25 24.875C77.7396 26.3229 76.9688 27.4323 75.9375 28.2031C74.9167 28.974 73.5521 29.3646 71.8438 29.375Z" fill="#FF6C9E"/>
</svg>
