<svg width="16" height="16" viewBox="0 0 16 16" fill="none" xmlns="http://www.w3.org/2000/svg">
<path d="M8.00049 1.5C6.87162 1.49991 5.76219 1.79383 4.78143 2.35281C3.80066 2.91179 2.98239 3.71655 2.40716 4.68788C1.83194 5.6592 1.5196 6.76359 1.50089 7.8923C1.48219 9.02102 1.75777 10.1352 2.30049 11.125L1.76924 13C1.71968 13.1709 1.7169 13.3519 1.76118 13.5242C1.80546 13.6965 1.89517 13.8537 2.02097 13.9795C2.14676 14.1053 2.30401 14.195 2.47631 14.2393C2.64861 14.2836 2.82964 14.2808 3.00049 14.2312L4.87549 13.7C5.74442 14.1762 6.71073 14.4475 7.70057 14.4931C8.6904 14.5387 9.67756 14.3574 10.5866 13.963C11.4956 13.5686 12.3024 12.9717 12.9454 12.2177C13.5884 11.4638 14.0504 10.5728 14.2963 9.61289C14.5422 8.65299 14.5653 7.64959 14.364 6.67938C14.1627 5.70916 13.7422 4.79781 13.1347 4.01499C12.5273 3.23217 11.7488 2.5986 10.859 2.16271C9.96911 1.72682 8.99138 1.50014 8.00049 1.5ZM8.00049 13.5C7.01319 13.4991 6.04417 13.2336 5.19424 12.7312C5.11581 12.6875 5.02778 12.6639 4.93799 12.6625C4.89153 12.6626 4.84528 12.6689 4.80049 12.6812L2.72549 13.275L3.31924 11.2C3.33751 11.1343 3.34249 11.0657 3.33391 10.9981C3.32532 10.9305 3.30334 10.8653 3.26924 10.8062C2.65009 9.76261 2.39347 8.5435 2.53935 7.33881C2.68523 6.13413 3.22542 5.01151 4.07578 4.14581C4.92615 3.28012 6.03893 2.71996 7.24082 2.55257C8.4427 2.38519 9.6662 2.61999 10.7207 3.22039C11.7753 3.8208 12.6017 4.7531 13.0711 5.87209C13.5406 6.99107 13.6269 8.23391 13.3164 9.40701C13.006 10.5801 12.3163 11.6176 11.3548 12.3579C10.3933 13.0982 9.21398 13.4998 8.00049 13.5ZM8.75049 8C8.75049 8.14834 8.70651 8.29334 8.6241 8.41668C8.54169 8.54001 8.42455 8.63614 8.28751 8.69291C8.15046 8.74967 7.99966 8.76453 7.85418 8.73559C7.70869 8.70665 7.57505 8.63522 7.47016 8.53033C7.36527 8.42544 7.29384 8.2918 7.2649 8.14632C7.23597 8.00083 7.25082 7.85003 7.30758 7.71299C7.36435 7.57594 7.46048 7.45881 7.58382 7.3764C7.70715 7.29399 7.85216 7.25 8.00049 7.25C8.19941 7.25 8.39017 7.32902 8.53082 7.46967C8.67148 7.61032 8.75049 7.80109 8.75049 8ZM5.75049 8C5.75049 8.14834 5.70651 8.29334 5.6241 8.41668C5.54169 8.54001 5.42455 8.63614 5.28751 8.69291C5.15046 8.74967 4.99966 8.76453 4.85418 8.73559C4.70869 8.70665 4.57505 8.63522 4.47016 8.53033C4.36527 8.42544 4.29384 8.2918 4.2649 8.14632C4.23597 8.00083 4.25082 7.85003 4.30758 7.71299C4.36435 7.57594 4.46048 7.45881 4.58382 7.3764C4.70715 7.29399 4.85216 7.25 5.00049 7.25C5.19941 7.25 5.39017 7.32902 5.53082 7.46967C5.67148 7.61032 5.75049 7.80109 5.75049 8ZM11.7505 8C11.7505 8.14834 11.7065 8.29334 11.6241 8.41668C11.5417 8.54001 11.4246 8.63614 11.2875 8.69291C11.1505 8.74967 10.9997 8.76453 10.8542 8.73559C10.7087 8.70665 10.5751 8.63522 10.4702 8.53033C10.3653 8.42544 10.2938 8.2918 10.2649 8.14632C10.236 8.00083 10.2508 7.85003 10.3076 7.71299C10.3644 7.57594 10.4605 7.45881 10.5838 7.3764C10.7072 7.29399 10.8522 7.25 11.0005 7.25C11.1994 7.25 11.3902 7.32902 11.5308 7.46967C11.6715 7.61032 11.7505 7.80109 11.7505 8Z" fill="#545454"/>
</svg>
