<?xml version="1.0" standalone="no"?>
<!DOCTYPE svg PUBLIC "-//W3C//DTD SVG 20010904//EN"
 "http://www.w3.org/TR/2001/REC-SVG-20010904/DTD/svg10.dtd">
<svg version="1.0" xmlns="http://www.w3.org/2000/svg"
 width="512.000000pt" height="512.000000pt" viewBox="0 0 512.000000 512.000000"
 preserveAspectRatio="xMidYMid meet">

<g transform="translate(0.000000,512.000000) scale(0.100000,-0.100000)"
fill="#000000" stroke="none">
<path d="M859 5059 c-244 -21 -472 -176 -589 -400 -80 -154 -109 -353 -64
-449 44 -96 134 -154 239 -153 72 0 119 18 173 67 52 47 70 87 87 192 16 100
44 150 107 191 37 25 51 28 123 28 72 0 86 -3 123 -28 65 -42 96 -97 100 -176
7 -120 -34 -178 -171 -244 -150 -73 -239 -169 -289 -315 -18 -54 -22 -89 -23
-182 0 -109 2 -118 30 -169 35 -63 82 -105 144 -126 171 -58 341 64 341 244
l0 66 83 42 c153 79 258 186 332 338 57 119 75 199 75 331 0 134 -18 211 -78
334 -39 82 -59 108 -141 191 -82 82 -109 102 -191 141 -140 68 -256 90 -411
77z"/>
<path d="M2478 5059 c-352 -35 -642 -335 -665 -689 -6 -102 6 -153 50 -212 77
-101 217 -132 326 -73 87 48 141 133 141 224 0 60 19 110 58 153 150 166 425
46 399 -174 -11 -90 -56 -144 -162 -194 -90 -43 -118 -62 -182 -125 -102 -101
-148 -231 -141 -404 5 -112 21 -157 80 -211 57 -54 95 -69 178 -69 83 0 121
15 178 69 51 48 75 101 80 183 l5 73 53 24 c193 88 337 258 405 476 34 108 34
302 1 410 -112 358 -436 575 -804 539z"/>
<path d="M4110 5058 c-97 -7 -217 -46 -307 -99 -32 -19 -99 -74 -148 -124 -77
-76 -98 -105 -138 -185 -55 -113 -77 -200 -78 -313 -1 -99 13 -138 71 -201
101 -109 269 -108 373 3 50 54 63 86 76 190 12 92 45 144 116 183 59 33 141
37 206 12 38 -16 43 -16 77 0 l36 18 23 -29 c51 -63 80 -153 50 -153 -24 0
-46 -34 -58 -88 -18 -85 -59 -129 -172 -187 -118 -60 -171 -104 -226 -186 -61
-91 -81 -167 -81 -308 0 -107 2 -122 27 -170 41 -83 130 -139 224 -140 143 -3
253 104 266 259 l6 70 71 36 c253 128 409 383 409 669 1 232 -99 438 -282 585
-155 124 -328 175 -541 158z"/>
<path d="M864 3210 c-66 -21 -127 -72 -159 -134 -26 -52 -30 -70 -28 -132 1
-72 1 -73 -29 -85 -140 -58 -304 -221 -386 -384 -63 -126 -75 -183 -80 -386
l-4 -185 -44 -28 c-78 -49 -134 -155 -134 -251 0 -145 116 -275 268 -300 40
-6 44 -10 78 -78 41 -82 61 -112 123 -185 l45 -53 -145 -291 -144 -290 0 -76
c1 -93 28 -155 97 -218 89 -82 60 -79 783 -79 509 0 650 3 687 14 39 11 52 11
85 0 29 -11 118 -14 379 -14 366 0 365 0 385 52 8 22 13 23 109 23 91 0 100
-2 100 -18 0 -11 9 -27 21 -38 19 -17 38 -19 178 -19 104 0 169 5 194 14 32
11 46 11 85 0 37 -11 178 -14 687 -14 723 0 694 -3 783 79 69 63 96 125 97
218 l0 76 -144 290 -145 291 45 53 c62 73 82 103 123 185 34 68 38 72 78 78
181 29 301 202 259 372 -17 67 -71 145 -124 178 l-45 29 -4 185 c-5 203 -17
260 -80 386 -82 163 -246 326 -386 384 -29 12 -30 14 -29 86 1 62 -3 81 -29
131 -64 126 -220 178 -343 114 -78 -40 -141 -131 -141 -204 l0 -34 -67 -7
c-207 -21 -378 -94 -512 -221 l-68 -63 -39 40 c-86 90 -218 168 -351 209 l-70
21 -6 56 c-16 150 -165 257 -312 224 -106 -24 -191 -118 -202 -223 l-6 -55
-91 -31 c-118 -39 -223 -100 -306 -179 l-67 -62 -39 40 c-127 133 -328 224
-536 244 l-68 7 0 34 c0 74 -63 164 -142 205 -44 23 -140 32 -184 19z m510
-440 c244 -62 434 -252 496 -496 15 -58 20 -111 20 -212 l0 -135 -110 7 c-217
13 -396 56 -575 138 -60 28 -123 51 -139 51 -52 0 -83 -63 -56 -114 21 -39
263 -141 423 -179 133 -31 212 -41 379 -49 174 -7 189 -12 236 -82 42 -61 20
-150 -50 -202 -19 -14 -48 -21 -102 -25 -87 -5 -93 -10 -129 -100 -72 -179
-210 -323 -383 -395 -137 -58 -311 -71 -452 -33 -212 57 -389 214 -475 420
-41 99 -49 106 -116 106 -113 0 -186 61 -186 155 0 95 55 145 168 154 84 7
101 17 118 69 35 109 123 240 211 313 58 48 61 49 84 34 56 -37 124 -5 124 59
0 47 -83 126 -132 126 -85 0 -291 -190 -372 -344 l-26 -49 0 99 c0 281 139
513 382 635 l56 28 44 -23 c92 -52 213 -39 286 29 36 33 40 34 118 35 49 0
112 -8 158 -20z m1102 -60 c83 -28 178 -9 253 48 40 30 48 30 141 1 193 -60
356 -219 432 -421 30 -78 32 -93 36 -245 l4 -163 -65 0 c-96 0 -278 26 -385
55 -232 62 -440 174 -606 326 -93 84 -112 87 -197 29 -32 -22 -61 -40 -63 -40
-2 0 -9 21 -15 46 -7 26 -28 80 -47 121 l-36 75 39 40 c86 90 218 166 332 192
55 12 56 12 98 -20 23 -18 59 -38 79 -44z m-269 -534 c268 -240 694 -396 1084
-396 113 0 152 -12 192 -59 55 -65 44 -158 -25 -214 -31 -25 -48 -30 -110 -35
-42 -2 -80 -10 -89 -19 -9 -8 -26 -40 -37 -71 -77 -210 -262 -378 -482 -438
-88 -24 -271 -24 -358 -1 -179 50 -338 170 -430 325 -27 47 -21 61 23 62 35 0
120 46 158 85 129 133 108 361 -43 461 l-40 27 0 108 0 108 56 45 c31 26 58
46 60 46 2 0 21 -15 41 -34z m1450 0 c109 -97 294 -210 448 -272 192 -77 366
-113 607 -123 170 -7 185 -12 232 -75 29 -38 29 -124 0 -163 -31 -43 -98 -73
-165 -73 -68 0 -75 -7 -119 -113 -164 -397 -642 -554 -1015 -335 -82 49 -186
152 -234 232 -36 61 -34 75 14 76 41 0 121 48 168 99 119 133 96 339 -50 444
l-44 31 3 110 3 110 53 43 c29 24 55 43 57 43 3 0 22 -15 42 -34z m-1743
-1110 l49 -59 -62 -124 c-34 -68 -65 -122 -69 -119 -4 2 -34 58 -66 124 l-59
119 51 62 c29 34 57 71 63 83 l12 22 16 -24 c9 -14 38 -51 65 -84z m1441 11
c22 -27 44 -55 49 -61 9 -13 -110 -260 -122 -252 -4 2 -34 58 -66 124 l-59
119 51 62 c29 34 57 71 63 83 l12 22 16 -24 c9 -13 34 -46 56 -73z m-2615
-220 c132 -64 206 -81 365 -81 163 -1 246 17 381 83 54 27 99 48 100 48 1 -1
60 -118 133 -259 90 -176 131 -267 131 -290 0 -46 -29 -99 -69 -125 l-34 -23
-636 0 c-613 0 -637 1 -668 20 -40 24 -62 57 -70 105 -5 33 8 66 128 306 73
148 136 268 139 266 3 -2 48 -24 100 -50z m2976 -38 c238 -83 530 -56 724 66
23 15 43 25 45 23 14 -15 254 -510 259 -535 10 -45 -23 -117 -66 -143 -32 -19
-48 -20 -645 -20 -337 0 -613 2 -613 4 0 2 7 21 16 42 27 65 15 173 -28 259
l-36 70 81 161 81 162 61 -34 c34 -19 88 -43 121 -55z"/>
<path d="M912 1790 c-30 -13 -42 -48 -42 -130 0 -80 12 -113 47 -129 36 -16
51 -14 78 14 23 22 25 32 25 115 0 83 -2 93 -25 115 -25 26 -45 30 -83 15z"/>
<path d="M1225 1775 c-23 -22 -25 -32 -25 -113 0 -109 15 -136 75 -136 60 0
75 27 75 136 0 81 -2 91 -25 113 -13 14 -36 25 -50 25 -14 0 -37 -11 -50 -25z"/>
<path d="M2363 1790 c-33 -13 -43 -42 -43 -122 0 -95 7 -116 41 -133 39 -21
56 -19 84 10 23 22 25 32 25 115 0 83 -2 93 -25 115 -25 26 -45 30 -82 15z"/>
<path d="M2676 1777 c-24 -24 -26 -33 -26 -117 0 -83 2 -93 25 -115 28 -29 45
-31 84 -10 35 17 41 38 41 136 0 88 -15 115 -67 125 -26 5 -37 1 -57 -19z"/>
<path d="M3795 1775 c-23 -22 -25 -32 -25 -113 0 -109 15 -136 75 -136 60 0
75 27 75 136 0 81 -2 91 -25 113 -13 14 -36 25 -50 25 -14 0 -37 -11 -50 -25z"/>
<path d="M4126 1777 c-24 -24 -26 -33 -26 -117 0 -83 2 -93 25 -115 27 -28 42
-30 79 -14 36 17 49 57 45 148 -5 89 -14 107 -66 117 -26 5 -37 1 -57 -19z"/>
</g>
</svg>
